# 3ds Max Wavefront OBJ Exporter v0.97b - (c)2007 guruware
# File Created: 19.05.2015 12:29:38

mtllib estone.mtl

#
# object n0b0
#

v  367.0177 52.6781 55.3996
v  368.6089 10.0000 -0.6157
v  397.6056 10.0000 -108.8070
v  251.7347 10.0000 125.6916
v  258.5198 64.0618 137.3219
v  171.4843 10.0000 146.9463
v  171.4843 63.0260 150.2857
v  84.4489 64.0618 137.3218
v  67.2573 90.9086 145.3481
v  -24.0491 52.6781 55.3996
v  94.2533 109.2067 124.1882
v  72.4886 131.6241 146.9860
v  171.4843 119.5316 153.8443
v  171.4843 145.3227 175.1366
v  270.4800 131.6241 146.9860
v  276.1769 149.4090 116.9527
v  377.2044 124.1362 50.6468
v  414.5701 150.4813 -99.5569
v  401.1153 180.4115 13.2313
v  344.6212 246.7845 3.8245
v  341.2301 200.3654 88.4234
v  210.9968 270.6781 58.9875
v  223.3280 207.7689 89.4383
v  196.2357 291.8328 130.4436
v  207.8477 221.8901 184.6895
v  171.4843 228.2433 197.2257
v  171.4843 211.5305 212.6513
v  135.1210 221.8901 184.6895
v  129.8522 202.0520 190.2097
v  119.6407 207.7689 89.4383
v  111.1959 180.3421 117.2345
v  1.7386 200.3654 88.4234
v  66.7918 149.4090 116.9527
v  -34.2358 124.1362 50.6468
v  -71.6015 150.4813 -99.5569
v  -82.4364 31.8930 -111.9738
v  -26.9657 194.3904 -248.9436
v  -48.5600 31.8934 -271.7003
v  62.2371 31.8938 -337.9969
v  76.2388 10.0000 -314.2186
v  171.4843 10.0000 -335.5024
v  363.5252 10.0000 -246.0208
v  234.9813 0.0000 -238.2264
v  266.7299 10.0000 -314.2186
v  299.5116 0.0000 -192.7612
v  322.2318 0.0000 -101.2853
v  302.9007 -0.0000 -29.1578
v  224.9846 -0.0000 55.0470
v  171.4843 -0.0000 69.2169
v  117.9841 -0.0000 55.0470
v  171.4843 0.0000 -86.2420
v  40.0679 -0.0000 -29.1578
v  20.7368 0.0000 -101.2853
v  -25.6403 10.0000 -0.6156
v  -54.6369 10.0000 -108.8070
v  391.5286 31.8934 -271.7003
v  425.4051 31.8930 -111.9738
v  369.9343 194.3904 -248.9436
v  326.6037 392.0459 -99.5564
v  338.7983 316.3711 19.9407
v  223.0926 314.3634 97.3500
v  171.4843 313.8622 110.6593
v  171.4843 290.8499 142.0158
v  146.7330 291.8328 130.4436
v  16.3649 392.0459 -99.5564
v  -1.6526 246.7845 3.8245
v  36.9886 375.8922 -204.5851
v  105.0113 377.8188 -256.1129
v  171.4843 438.0085 -99.5568
v  171.4843 379.7453 -260.7267
v  237.9573 377.8188 -256.1129
v  269.9344 194.3906 -309.4930
v  280.7316 31.8938 -337.9969
v  -58.1467 180.4115 13.2313
v  131.9718 270.6781 58.9875
v  231.7727 180.3421 117.2345
v  171.4843 167.3950 139.5493
v  171.4843 188.0321 187.7196
v  119.8760 314.3634 97.3500
v  171.4843 411.4905 11.0390
v  302.4382 405.7530 -32.2917
v  171.4843 31.8941 -357.3795
v  73.0342 194.3906 -309.4930
v  248.7153 109.2067 124.1882
v  275.7113 90.9086 145.3481
v  171.4843 102.0096 173.1115
v  171.4843 0.0000 -252.4156
v  171.4843 194.3908 -323.1283
v  4.1703 316.3711 19.9407
v  40.5304 405.7530 -32.2917
v  43.4571 0.0000 -192.7612
v  107.9873 0.0000 -238.2264
v  91.2339 10.0000 125.6916
v  213.1164 202.0520 190.2097
v  305.9801 375.8922 -204.5851
v  -20.5566 10.0000 -246.0208
# 96 vertices

vn 0.7813 -0.2187 0.5846
vn 0.7733 -0.4936 0.3980
vn 0.7086 -0.7013 0.0772
vn 0.4802 -0.3944 0.7835
vn 0.3281 -0.2938 0.8978
vn 0.0000 -0.1516 0.9884
vn 0.0000 -0.3182 0.9480
vn -0.3281 -0.2938 0.8978
vn -0.4360 0.0991 0.8945
vn -0.7813 -0.2187 0.5846
vn -0.4129 0.3103 0.8563
vn -0.3958 -0.2522 0.8830
vn 0.0000 -0.3283 0.9446
vn 0.0000 0.4847 0.8747
vn 0.3958 -0.2522 0.8830
vn 0.4480 0.4046 0.7972
vn 0.8069 -0.1139 0.5796
vn 0.9832 0.1642 0.0800
vn 0.9016 0.3021 0.3097
vn 0.7988 0.4622 0.3851
vn 0.4232 0.4524 0.7850
vn 0.6571 0.0371 0.7529
vn 0.7786 0.4709 0.4147
vn 0.6664 0.4887 0.5631
vn 0.6950 0.4758 0.5391
vn 0.0000 0.6636 0.7481
vn 0.0000 0.1274 0.9919
vn -0.6950 0.4758 0.5391
vn -0.8042 -0.1626 0.5717
vn -0.7786 0.4709 0.4147
vn -0.5156 -0.0047 0.8568
vn -0.4232 0.4524 0.7850
vn -0.4480 0.4046 0.7972
vn -0.8069 -0.1139 0.5796
vn -0.9832 0.1642 0.0800
vn -0.9598 -0.2804 0.0095
vn -0.7858 0.2765 -0.5532
vn -0.6570 -0.5968 -0.4606
vn -0.3443 -0.3318 -0.8783
vn -0.2524 -0.8105 -0.5286
vn 0.0000 -0.7422 -0.6702
vn 0.0902 -0.9929 -0.0780
vn 0.0338 -0.9974 -0.0644
vn 0.0415 -0.9927 -0.1133
vn 0.0657 -0.9973 -0.0330
vn 0.1306 -0.9914 -0.0092
vn 0.0799 -0.9968 0.0081
vn 0.1258 -0.9904 0.0573
vn 0.0701 -0.9964 0.0471
vn 0.0829 -0.9906 0.1088
vn 0.0351 -0.9969 0.0711
vn 0.0000 -0.9918 0.1276
vn 0.0000 -0.9980 0.0639
vn -0.0472 -0.9960 0.0758
vn 0.0000 -1.0000 -0.0000
vn -0.0608 -0.9976 0.0340
vn -0.0799 -0.9968 0.0081
vn -0.1213 -0.9903 0.0678
vn -0.1306 -0.9914 -0.0092
vn 0.6570 -0.5968 -0.4606
vn 0.4198 -0.8638 -0.2786
vn 0.9598 -0.2804 0.0095
vn 0.7858 0.2765 -0.5532
vn 0.8258 0.5627 -0.0374
vn 0.7868 0.0769 0.6124
vn 0.4973 0.3503 0.7937
vn 0.0000 0.7617 0.6479
vn 0.0000 0.7388 0.6739
vn -0.6664 0.4887 0.5631
vn -0.8258 0.5627 -0.0374
vn -0.7988 0.4622 0.3851
vn -0.5496 0.7339 -0.3992
vn -0.3164 0.6441 -0.6965
vn 0.0000 0.9617 -0.2742
vn 0.0000 0.5693 -0.8222
vn 0.3164 0.6441 -0.6965
vn 0.2569 0.2543 -0.9324
vn 0.3443 -0.3318 -0.8783
vn 0.2524 -0.8105 -0.5286
vn -0.9016 0.3021 0.3097
vn -0.6571 0.0371 0.7529
vn 0.5156 -0.0047 0.8568
vn 0.0000 0.1723 0.9850
vn 0.0000 -0.8733 0.4872
vn -0.4973 0.3503 0.7937
vn 0.0000 0.8341 0.5516
vn 0.4339 0.8193 0.3749
vn 0.0000 -0.1187 -0.9929
vn -0.2569 0.2543 -0.9324
vn 0.4129 0.3103 0.8563
vn 0.4360 0.0991 0.8945
vn 0.0000 0.4765 0.8792
vn 0.0053 -0.9974 -0.0718
vn -0.0089 -0.9928 -0.1195
vn 0.0000 0.2631 -0.9648
vn -0.7868 0.0769 0.6124
vn -0.4339 0.8193 0.3749
vn 0.0000 0.9974 0.0720
vn -0.0666 -0.9968 -0.0444
vn -0.0249 -0.9974 -0.0681
vn -0.0563 -0.9927 -0.1071
vn -0.7086 -0.7013 0.0772
vn -0.7733 -0.4936 0.3980
vn -0.4802 -0.3944 0.7835
vn 0.8042 -0.1626 0.5717
vn 0.5496 0.7339 -0.3992
vn -0.4198 -0.8638 -0.2786
vn -0.0706 -0.9910 0.1135
vn -0.0998 -0.9928 -0.0664
# 109 vertex normals

vt 0.7096 0.1694 0.0000
vt 0.6002 -0.0025 0.0000
vt 0.5221 -0.0064 0.0000
vt 0.8502 0.0014 0.0000
vt 0.8268 0.0874 0.0000
vt 1.0026 0.0053 0.0000
vt 1.0026 0.0952 0.0000
vt 0.8112 0.1459 0.0000
vt 0.8541 0.1967 0.0000
vt 0.8151 0.2358 0.0000
vt 1.0026 0.2358 0.0000
vt 1.0026 0.2866 0.0000
vt 0.7994 0.2905 0.0000
vt 0.6315 0.3022 0.0000
vt 0.5221 0.3959 0.0000
vt 0.6354 0.4663 0.0000
vt 0.6471 0.6108 0.0000
vt 0.7330 0.4858 0.0000
vt 0.9010 0.6303 0.0000
vt 0.8971 0.5014 0.0000
vt 0.9674 0.6264 0.0000
vt 0.9713 0.5561 0.0000
vt 1.0065 0.5561 0.0000
vt 1.0065 0.4155 0.0000
vt 0.9205 0.4155 0.0000
vt 0.8541 0.3881 0.0000
vt 0.4088 0.2397 0.0000
vt 0.3346 0.4819 0.0000
vt 0.2721 0.2436 0.0000
vt 0.1510 0.1577 0.0000
vt 0.2760 -0.0025 0.0000
vt 0.1549 -0.0064 0.0000
vt 0.5537 0.0932 0.0000
vt 0.3857 0.1088 0.0000
vt 0.4209 0.0151 0.0000
vt 0.4756 0.1635 0.0000
vt 0.6084 0.2612 0.0000
vt 0.5107 0.2729 0.0000
vt 0.5771 0.3979 0.0000
vt 0.4912 0.3627 0.0000
vt 0.4326 0.5581 0.0000
vt 0.3935 0.4721 0.0000
vt 0.3310 0.5893 0.0000
vt 0.3232 0.4917 0.0000
vt 0.2529 0.4799 0.0000
vt 0.3115 0.3002 0.0000
vt 0.1435 0.3823 0.0000
vt 0.1123 0.2924 0.0000
vt 0.0615 0.4213 0.0000
vt 0.0146 0.2885 0.0000
vt 0.3971 0.0014 0.0000
vt 0.5221 0.7358 0.0000
vt 0.7643 0.7553 0.0000
vt 0.9127 0.7006 0.0000
vt 1.0065 0.7241 0.0000
vt 1.0065 0.6147 0.0000
vt 0.2721 0.7358 0.0000
vt 0.0533 0.7124 0.0000
vt 0.7330 0.9702 0.0000
vt 0.0299 0.9624 0.0000
vt 0.2096 0.5795 0.0000
vt 1.0026 0.3217 0.0000
vt 1.0065 0.3881 0.0000
vt 1.0065 0.8608 0.0000
vt 0.0299 0.1147 0.0000
vt 0.2018 0.3139 0.0000
vt 1.0026 0.1694 0.0000
vt 0.2998 0.0971 0.0000
vt 0.2959 -0.0044 0.0000
vt 0.0729 0.5288 0.0000
vt 1.0065 0.9702 0.0000
vt 0.1357 0.1792 0.0000
vt 0.2178 0.1167 0.0000
vt 0.1709 0.0268 0.0000
vt 0.2217 0.5698 0.0000
vt 0.0498 0.1206 0.0000
# 76 texture coords

g n0b0
usemtl 02___Default
s 1
f 1/1/1 2/2/2 3/3/3 
f 2/2/2 1/1/1 4/4/4 
f 5/5/5 4/4/4 1/1/1 
f 4/4/4 5/5/5 6/6/6 
f 7/7/7 6/6/6 5/5/5 
f 6/6/6 7/7/7 8/5/8 
f 9/8/9 8/5/8 7/7/7 
f 8/5/8 9/8/9 10/1/10 
f 11/9/11 10/1/10 9/8/9 
f 10/1/10 11/9/11 12/10/12 
f 13/11/13 12/10/12 11/9/11 
f 12/10/12 13/11/13 14/12/14 
f 15/10/15 14/12/14 13/11/13 
f 14/12/14 15/10/15 16/13/16 
f 1/1/1 16/13/16 15/10/15 
f 16/13/16 1/1/1 17/14/17 
f 18/15/18 17/14/17 1/1/1 
f 17/14/17 18/15/18 19/16/19 
f 20/17/20 19/16/19 18/15/18 
f 19/16/19 20/17/20 21/18/21 
f 22/19/22 21/18/21 20/17/20 
f 21/18/21 22/19/22 23/20/23 
f 24/21/24 23/20/23 22/19/22 
f 23/20/23 24/21/24 25/22/25 
f 26/23/26 25/22/25 24/21/24 
f 25/22/25 26/23/26 27/24/27 
f 28/22/28 27/24/27 26/23/26 
f 27/24/27 28/22/28 29/25/29 
f 30/20/30 29/25/29 28/22/28 
f 29/25/29 30/20/30 31/26/31 
f 32/18/32 31/26/31 30/20/30 
f 31/26/31 32/18/32 33/13/33 
f 34/14/34 33/13/33 32/18/32 
f 33/13/33 34/14/34 10/1/10 
f 35/15/35 10/1/10 34/14/34 
f 10/1/10 35/15/35 36/27/36 
f 37/28/37 36/27/36 35/15/35 
f 36/27/36 37/28/37 38/29/38 
f 39/30/39 38/29/38 37/28/37 
f 38/29/38 39/30/39 40/31/40 
f 41/32/41 40/31/40 39/30/39 
f 42/33/42 43/34/43 44/35/44 
f 43/34/43 42/33/42 45/36/45 
f 3/37/46 45/36/45 42/33/42 
f 45/36/45 3/37/46 46/38/47 
f 2/39/48 46/38/47 3/37/46 
f 46/38/47 2/39/48 47/40/49 
f 4/41/50 47/40/49 2/39/48 
f 47/40/49 4/41/50 48/42/51 
f 6/43/52 48/42/51 4/41/50 
f 48/42/51 6/43/52 49/44/53 
f 50/45/54 49/44/53 6/43/52 
f 49/44/53 50/45/54 51/46/55 
f 52/47/56 51/46/55 50/45/54 
f 51/46/55 52/47/56 53/48/57 
f 54/49/58 53/48/57 52/47/56 
f 53/48/57 54/49/58 55/50/59 
f 56/29/60 3/3/3 42/51/61 
f 3/3/3 56/29/60 57/27/62 
f 58/28/63 57/27/62 56/29/60 
f 57/27/62 58/28/63 18/15/18 
f 59/52/64 18/15/18 58/28/63 
f 18/15/18 59/52/64 20/17/20 
f 60/53/65 20/17/20 59/52/64 
f 20/17/20 60/53/65 22/19/22 
f 61/54/66 22/19/22 60/53/65 
f 22/19/22 61/54/66 24/21/24 
f 62/55/67 24/21/24 61/54/66 
f 24/21/24 62/55/67 63/56/68 
f 64/21/69 63/56/68 62/55/67 
f 63/56/68 64/21/69 26/23/26 
f 65/52/70 35/15/35 66/17/71 
f 35/15/35 65/52/70 37/28/37 
f 67/57/72 37/28/37 65/52/70 
f 37/28/37 67/57/72 68/58/73 
f 69/59/74 68/58/73 67/57/72 
f 68/58/73 69/59/74 70/60/75 
f 71/58/76 70/60/75 69/59/74 
f 70/60/75 71/58/76 72/61/77 
f 58/28/63 72/61/77 71/58/76 
f 72/61/77 58/28/63 73/30/78 
f 56/29/60 73/30/78 58/28/63 
f 73/30/78 56/29/60 44/31/79 
f 42/51/61 44/31/79 56/29/60 
f 74/16/80 35/15/35 34/14/34 
f 35/15/35 74/16/80 66/17/71 
f 32/18/32 66/17/71 74/16/80 
f 66/17/71 32/18/32 75/19/81 
f 30/20/30 75/19/81 32/18/32 
f 75/19/81 30/20/30 64/21/69 
f 28/22/28 64/21/69 30/20/30 
f 64/21/69 28/22/28 26/23/26 
f 21/18/21 17/14/17 19/16/19 
f 17/14/17 21/18/21 16/13/16 
f 76/26/82 16/13/16 21/18/21 
f 16/13/16 76/26/82 77/62/83 
f 78/63/84 77/62/83 76/26/82 
f 77/62/83 78/63/84 31/26/31 
f 29/25/29 31/26/31 78/63/84 
f 62/55/67 79/54/85 64/21/69 
f 79/54/85 62/55/67 80/64/86 
f 61/54/66 80/64/86 62/55/67 
f 80/64/86 61/54/66 81/59/87 
f 60/53/65 81/59/87 61/54/66 
f 81/59/87 60/53/65 59/52/64 
f 41/32/41 73/30/78 44/31/79 
f 73/30/78 41/32/41 82/65/88 
f 39/30/39 82/65/88 41/32/41 
f 82/65/88 39/30/39 83/66/89 
f 37/28/37 83/66/89 39/30/39 
f 83/66/89 37/28/37 68/58/73 
f 84/9/90 1/1/1 15/10/15 
f 1/1/1 84/9/90 85/8/91 
f 86/67/92 85/8/91 84/9/90 
f 85/8/91 86/67/92 7/7/7 
f 9/8/9 7/7/7 86/67/92 
f 51/46/55 45/36/45 46/38/47 
f 45/36/45 51/46/55 43/34/43 
f 87/68/93 43/34/43 51/46/55 
f 43/34/43 87/68/93 44/35/44 
f 41/69/94 44/35/44 87/68/93 
f 70/60/75 83/66/89 68/58/73 
f 83/66/89 70/60/75 88/70/95 
f 72/61/77 88/70/95 70/60/75 
f 88/70/95 72/61/77 82/65/88 
f 73/30/78 82/65/88 72/61/77 
f 79/54/85 75/19/81 64/21/69 
f 75/19/81 79/54/85 89/53/96 
f 90/59/97 89/53/96 79/54/85 
f 89/53/96 90/59/97 65/52/70 
f 69/71/98 65/52/70 90/59/97 
f 86/67/92 11/9/11 9/8/9 
f 11/9/11 86/67/92 13/11/13 
f 84/9/90 13/11/13 86/67/92 
f 13/11/13 84/9/90 15/10/15 
f 80/64/86 90/59/97 79/54/85 
f 90/59/97 80/64/86 69/71/98 
f 81/59/87 69/71/98 80/64/86 
f 69/71/98 81/59/87 59/52/64 
f 91/72/99 51/46/55 53/48/57 
f 51/46/55 91/72/99 92/73/100 
f 40/74/101 92/73/100 91/72/99 
f 92/73/100 40/74/101 41/69/94 
f 55/3/102 36/27/36 38/29/38 
f 36/27/36 55/3/102 10/1/10 
f 54/2/103 10/1/10 55/3/102 
f 10/1/10 54/2/103 93/4/104 
f 23/20/23 76/26/82 21/18/21 
f 76/26/82 23/20/23 94/25/105 
f 25/22/25 94/25/105 23/20/23 
f 94/25/105 25/22/25 27/24/27 
f 95/57/106 71/58/76 69/59/74 
f 71/58/76 95/57/106 58/28/63 
f 59/52/64 58/28/63 95/57/106 
f 78/63/84 27/24/27 29/25/29 
f 27/24/27 78/63/84 94/25/105 
f 76/26/82 94/25/105 78/63/84 
f 33/13/33 77/62/83 31/26/31 
f 77/62/83 33/13/33 14/12/14 
f 12/10/12 14/12/14 33/13/33 
f 51/46/55 48/42/51 49/44/53 
f 48/42/51 51/46/55 47/40/49 
f 46/38/47 47/40/49 51/46/55 
f 89/53/96 66/17/71 75/19/81 
f 66/17/71 89/53/96 65/52/70 
f 92/73/100 87/68/93 51/46/55 
f 87/68/93 92/73/100 41/69/94 
f 1/1/1 57/27/62 18/15/18 
f 57/27/62 1/1/1 3/3/3 
f 96/51/107 38/29/38 40/31/40 
f 38/29/38 96/51/107 55/3/102 
f 93/75/108 50/45/54 6/43/52 
f 50/45/54 93/75/108 54/49/58 
f 8/5/8 93/4/104 6/6/6 
f 93/4/104 8/5/8 10/1/10 
f 55/50/59 91/72/99 53/48/57 
f 91/72/99 55/50/59 96/76/109 
f 85/8/91 5/5/5 1/1/1 
f 5/5/5 85/8/91 7/7/7 
f 50/45/54 54/49/58 52/47/56 
f 91/72/99 96/76/109 40/74/101 
f 95/57/106 69/59/74 59/52/64 
f 82/65/88 83/66/89 88/70/95 
f 26/23/26 24/21/24 63/56/68 
f 67/57/72 65/52/70 69/59/74 
f 34/14/34 32/18/32 74/16/80 
f 14/12/14 16/13/16 77/62/83 
f 12/10/12 33/13/33 10/1/10 
# 0 polygons - 188 triangles

