# 3ds Max Wavefront OBJ Exporter v0.97b - (c)2007 guruware
# File Created: 23.11.2014 22:12:53

mtllib reja.mtl

#
# object Railing001
#

v  -0.0585 16.9252 69.2667
v  -0.0585 12.9252 69.2667
v  -3.0584 12.9252 69.2882
v  -3.0584 16.9252 69.2882
v  -1.0815 16.9252 -73.3551
v  -4.0814 16.9252 -73.3336
v  -4.0814 12.9252 -73.3336
v  -1.0815 12.9252 -73.3551
v  -1.0585 7.4626 69.2739
v  -1.0585 5.4626 69.2739
v  -2.0584 5.4626 69.2810
v  -2.0584 7.4626 69.2810
v  -2.0815 7.4626 -73.3480
v  -3.0815 7.4626 -73.3408
v  -3.0815 5.4626 -73.3408
v  -2.0815 5.4626 -73.3480
v  -0.5728 -0.0000 67.2703
v  -2.5728 0.0000 67.2847
v  -2.5584 0.0000 69.2846
v  -0.5585 -0.0000 69.2703
v  -0.5728 12.9252 67.2703
v  -0.5585 12.9252 69.2703
v  -2.5584 12.9252 69.2846
v  -2.5728 12.9252 67.2847
v  -1.4078 -0.0000 20.5666
v  -2.4078 0.0000 20.5738
v  -2.4006 0.0000 21.5738
v  -1.4007 -0.0000 21.5666
v  -1.4078 12.9252 20.5666
v  -1.4007 12.9252 21.5666
v  -2.4006 12.9252 21.5738
v  -2.4078 12.9252 20.5738
v  -1.7393 -0.0000 -25.6407
v  -2.7393 0.0000 -25.6335
v  -2.7321 0.0000 -24.6335
v  -1.7321 -0.0000 -24.6407
v  -1.7393 12.9252 -25.6407
v  -1.7321 12.9252 -24.6407
v  -2.7321 12.9252 -24.6335
v  -2.7393 12.9252 -25.6335
v  -1.5815 -0.0000 -73.3515
v  -3.5814 0.0000 -73.3372
v  -3.5671 0.0000 -71.3373
v  -1.5672 -0.0000 -71.3516
v  -1.5815 12.9252 -73.3515
v  -1.5671 12.9252 -71.3516
v  -3.5671 12.9252 -71.3373
v  -3.5814 12.9252 -73.3372
# 48 vertices

vn 0.0072 0.0000 1.0000
vn -0.0072 0.0000 -1.0000
vn 1.0000 -0.0000 -0.0072
vn -0.0000 -1.0000 0.0000
vn -1.0000 0.0000 0.0072
vn 0.0000 1.0000 -0.0000
# 6 vertex normals

g Railing001
usemtl wire_213154229
s off
f 4//1 3//1 2//1 1//1 
f 8//2 7//2 6//2 5//2 
f 2//3 8//3 5//3 1//3 
f 3//4 7//4 8//4 2//4 
f 4//5 6//5 7//5 3//5 
f 1//6 5//6 6//6 4//6 
f 12//1 11//1 10//1 9//1 
f 16//2 15//2 14//2 13//2 
f 10//3 16//3 13//3 9//3 
f 11//4 15//4 16//4 10//4 
f 12//5 14//5 15//5 11//5 
f 9//6 13//6 14//6 12//6 
f 20//4 19//4 18//4 17//4 
f 24//6 23//6 22//6 21//6 
f 17//3 21//3 22//3 20//3 
f 20//1 22//1 23//1 19//1 
f 19//5 23//5 24//5 18//5 
f 18//2 24//2 21//2 17//2 
f 28//4 27//4 26//4 25//4 
f 32//6 31//6 30//6 29//6 
f 25//3 29//3 30//3 28//3 
f 28//1 30//1 31//1 27//1 
f 27//5 31//5 32//5 26//5 
f 26//2 32//2 29//2 25//2 
f 36//4 35//4 34//4 33//4 
f 40//6 39//6 38//6 37//6 
f 33//3 37//3 38//3 36//3 
f 36//1 38//1 39//1 35//1 
f 35//5 39//5 40//5 34//5 
f 34//2 40//2 37//2 33//2 
f 44//4 43//4 42//4 41//4 
f 48//6 47//6 46//6 45//6 
f 41//3 45//3 46//3 44//3 
f 44//1 46//1 47//1 43//1 
f 43//5 47//5 48//5 42//5 
f 42//2 48//2 45//2 41//2 
# 36 polygons

